<?xml version="1.0" encoding="utf-8" standalone="no"?>
<!DOCTYPE svg PUBLIC "-//W3C//DTD SVG 1.1//EN"
  "http://www.w3.org/Graphics/SVG/1.1/DTD/svg11.dtd">
<svg xmlns:xlink="http://www.w3.org/1999/xlink" width="516.6pt" height="236.16pt" viewBox="0 0 516.6 236.16" xmlns="http://www.w3.org/2000/svg" version="1.1">
 <metadata>
  <rdf:RDF xmlns:dc="http://purl.org/dc/elements/1.1/" xmlns:cc="http://creativecommons.org/ns#" xmlns:rdf="http://www.w3.org/1999/02/22-rdf-syntax-ns#">
   <cc:Work>
    <dc:type rdf:resource="http://purl.org/dc/dcmitype/StillImage"/>
    <dc:date>2026-07-10T22:22:09.839977</dc:date>
    <dc:format>image/svg+xml</dc:format>
    <dc:creator>
     <cc:Agent>
      <dc:title>Matplotlib v3.10.9, https://matplotlib.org/</dc:title>
     </cc:Agent>
    </dc:creator>
   </cc:Work>
  </rdf:RDF>
 </metadata>
 <defs>
  <style type="text/css">*{stroke-linejoin: round; stroke-linecap: butt}</style>
 </defs>
 <g id="figure_1">
  <g id="patch_1">
   <path d="M 0 236.16 
L 516.6 236.16 
L 516.6 0 
L 0 0 
z
" style="fill: #ffffff"/>
  </g>
  <g id="axes_1">
   <g id="patch_2">
    <path d="M 22.266 206.784 
L 494.334 206.784 
Q 499.356 206.784 499.356 201.24 
L 499.356 34.92 
Q 499.356 29.376 494.334 29.376 
L 22.266 29.376 
Q 17.244 29.376 17.244 34.92 
L 17.244 201.24 
Q 17.244 206.784 22.266 206.784 
z
" clip-path="url(#pe6ab8b07af)" style="fill: #fafafa; stroke-dasharray: 5.55,2.4; stroke-dashoffset: 0; stroke: #999999; stroke-width: 1.5; stroke-linejoin: miter"/>
   </g>
   <g id="patch_3">
    <path d="M 32.31 87.588 
L 233.19 87.588 
Q 235.701 87.588 235.701 84.816 
L 235.701 51.552 
Q 235.701 48.78 233.19 48.78 
L 32.31 48.78 
Q 29.799 48.78 29.799 51.552 
L 29.799 84.816 
Q 29.799 87.588 32.31 87.588 
z
" clip-path="url(#pe6ab8b07af)" style="fill: #2c5f8a; opacity: 0.12; stroke: #2c5f8a; stroke-width: 1.5; stroke-linejoin: miter"/>
   </g>
   <g id="patch_4">
    <path d="M 32.31 131.94 
L 233.19 131.94 
Q 235.701 131.94 235.701 129.168 
L 235.701 95.904 
Q 235.701 93.132 233.19 93.132 
L 32.31 93.132 
Q 29.799 93.132 29.799 95.904 
L 29.799 129.168 
Q 29.799 131.94 32.31 131.94 
z
" clip-path="url(#pe6ab8b07af)" style="fill: #4caf50; opacity: 0.12; stroke: #4caf50; stroke-width: 1.5; stroke-linejoin: miter"/>
   </g>
   <g id="patch_5">
    <path d="M 32.31 176.292 
L 233.19 176.292 
Q 235.701 176.292 235.701 173.52 
L 235.701 140.256 
Q 235.701 137.484 233.19 137.484 
L 32.31 137.484 
Q 29.799 137.484 29.799 140.256 
L 29.799 173.52 
Q 29.799 176.292 32.31 176.292 
z
" clip-path="url(#pe6ab8b07af)" style="fill: #6c8eb2; opacity: 0.12; stroke: #6c8eb2; stroke-width: 1.5; stroke-linejoin: miter"/>
   </g>
   <g id="patch_6">
    <path d="M 283.41 167.976 
L 484.29 167.976 
Q 489.312 167.976 489.312 162.432 
L 489.312 62.64 
Q 489.312 57.096 484.29 57.096 
L 283.41 57.096 
Q 278.388 57.096 278.388 62.64 
L 278.388 162.432 
Q 278.388 167.976 283.41 167.976 
z
" clip-path="url(#pe6ab8b07af)" style="fill: #e2882c; opacity: 0.08; stroke: #e2882c; stroke-width: 1.5; stroke-linejoin: miter"/>
   </g>
   <g id="text_1">
    <!-- JITDylib -->
    <g style="fill: #757575" transform="translate(32.31 54.324) scale(0.1 -0.1)">
     <defs>
      <path id="DejaVuSans-Bold-4a" d="M 588 4666 
L 1791 4666 
L 1791 453 
Q 1791 -419 1317 -850 
Q 844 -1281 -116 -1281 
L -359 -1281 
L -359 -372 
L -172 -372 
Q 203 -372 395 -162 
Q 588 47 588 453 
L 588 4666 
z
" transform="scale(0.015625)"/>
      <path id="DejaVuSans-Bold-49" d="M 588 4666 
L 1791 4666 
L 1791 0 
L 588 0 
L 588 4666 
z
" transform="scale(0.015625)"/>
      <path id="DejaVuSans-Bold-54" d="M 31 4666 
L 4331 4666 
L 4331 3756 
L 2784 3756 
L 2784 0 
L 1581 0 
L 1581 3756 
L 31 3756 
L 31 4666 
z
" transform="scale(0.015625)"/>
      <path id="DejaVuSans-Bold-44" d="M 1791 3756 
L 1791 909 
L 2222 909 
Q 2959 909 3348 1275 
Q 3738 1641 3738 2338 
Q 3738 3031 3350 3393 
Q 2963 3756 2222 3756 
L 1791 3756 
z
M 588 4666 
L 1856 4666 
Q 2919 4666 3439 4514 
Q 3959 4363 4331 4000 
Q 4659 3684 4818 3271 
Q 4978 2859 4978 2338 
Q 4978 1809 4818 1395 
Q 4659 981 4331 666 
Q 3956 303 3431 151 
Q 2906 0 1856 0 
L 588 0 
L 588 4666 
z
" transform="scale(0.015625)"/>
      <path id="DejaVuSans-Bold-79" d="M 78 3500 
L 1197 3500 
L 2138 1125 
L 2938 3500 
L 4056 3500 
L 2584 -331 
Q 2363 -916 2067 -1148 
Q 1772 -1381 1288 -1381 
L 641 -1381 
L 641 -647 
L 991 -647 
Q 1275 -647 1404 -556 
Q 1534 -466 1606 -231 
L 1638 -134 
L 78 3500 
z
" transform="scale(0.015625)"/>
      <path id="DejaVuSans-Bold-6c" d="M 538 4863 
L 1656 4863 
L 1656 0 
L 538 0 
L 538 4863 
z
" transform="scale(0.015625)"/>
      <path id="DejaVuSans-Bold-69" d="M 538 3500 
L 1656 3500 
L 1656 0 
L 538 0 
L 538 3500 
z
M 538 4863 
L 1656 4863 
L 1656 3950 
L 538 3950 
L 538 4863 
z
" transform="scale(0.015625)"/>
      <path id="DejaVuSans-Bold-62" d="M 2400 722 
Q 2759 722 2948 984 
Q 3138 1247 3138 1747 
Q 3138 2247 2948 2509 
Q 2759 2772 2400 2772 
Q 2041 2772 1848 2508 
Q 1656 2244 1656 1747 
Q 1656 1250 1848 986 
Q 2041 722 2400 722 
z
M 1656 2988 
Q 1888 3294 2169 3439 
Q 2450 3584 2816 3584 
Q 3463 3584 3878 3070 
Q 4294 2556 4294 1747 
Q 4294 938 3878 423 
Q 3463 -91 2816 -91 
Q 2450 -91 2169 54 
Q 1888 200 1656 506 
L 1656 0 
L 538 0 
L 538 4863 
L 1656 4863 
L 1656 2988 
z
" transform="scale(0.015625)"/>
     </defs>
     <use xlink:href="#DejaVuSans-Bold-4a"/>
     <use xlink:href="#DejaVuSans-Bold-49" transform="translate(37.207031 0)"/>
     <use xlink:href="#DejaVuSans-Bold-54" transform="translate(74.414062 0)"/>
     <use xlink:href="#DejaVuSans-Bold-44" transform="translate(142.626953 0)"/>
     <use xlink:href="#DejaVuSans-Bold-79" transform="translate(225.634766 0)"/>
     <use xlink:href="#DejaVuSans-Bold-6c" transform="translate(290.820312 0)"/>
     <use xlink:href="#DejaVuSans-Bold-69" transform="translate(325.097656 0)"/>
     <use xlink:href="#DejaVuSans-Bold-62" transform="translate(359.375 0)"/>
    </g>
   </g>
   <g id="text_2">
    <!-- Compile Layer -->
    <g style="fill: #2c5f8a" transform="translate(42.354 70.904313) scale(0.1 -0.1)">
     <defs>
      <path id="DejaVuSans-Bold-43" d="M 4288 256 
Q 3956 84 3597 -3 
Q 3238 -91 2847 -91 
Q 1681 -91 1000 561 
Q 319 1213 319 2328 
Q 319 3447 1000 4098 
Q 1681 4750 2847 4750 
Q 3238 4750 3597 4662 
Q 3956 4575 4288 4403 
L 4288 3438 
Q 3953 3666 3628 3772 
Q 3303 3878 2944 3878 
Q 2300 3878 1931 3465 
Q 1563 3053 1563 2328 
Q 1563 1606 1931 1193 
Q 2300 781 2944 781 
Q 3303 781 3628 887 
Q 3953 994 4288 1222 
L 4288 256 
z
" transform="scale(0.015625)"/>
      <path id="DejaVuSans-Bold-6f" d="M 2203 2784 
Q 1831 2784 1636 2517 
Q 1441 2250 1441 1747 
Q 1441 1244 1636 976 
Q 1831 709 2203 709 
Q 2569 709 2762 976 
Q 2956 1244 2956 1747 
Q 2956 2250 2762 2517 
Q 2569 2784 2203 2784 
z
M 2203 3584 
Q 3106 3584 3614 3096 
Q 4122 2609 4122 1747 
Q 4122 884 3614 396 
Q 3106 -91 2203 -91 
Q 1297 -91 786 396 
Q 275 884 275 1747 
Q 275 2609 786 3096 
Q 1297 3584 2203 3584 
z
" transform="scale(0.015625)"/>
      <path id="DejaVuSans-Bold-6d" d="M 3781 2919 
Q 3994 3244 4286 3414 
Q 4578 3584 4928 3584 
Q 5531 3584 5847 3212 
Q 6163 2841 6163 2131 
L 6163 0 
L 5038 0 
L 5038 1825 
Q 5041 1866 5042 1909 
Q 5044 1953 5044 2034 
Q 5044 2406 4934 2573 
Q 4825 2741 4581 2741 
Q 4263 2741 4089 2478 
Q 3916 2216 3909 1719 
L 3909 0 
L 2784 0 
L 2784 1825 
Q 2784 2406 2684 2573 
Q 2584 2741 2328 2741 
Q 2006 2741 1831 2477 
Q 1656 2213 1656 1722 
L 1656 0 
L 531 0 
L 531 3500 
L 1656 3500 
L 1656 2988 
Q 1863 3284 2130 3434 
Q 2397 3584 2719 3584 
Q 3081 3584 3359 3409 
Q 3638 3234 3781 2919 
z
" transform="scale(0.015625)"/>
      <path id="DejaVuSans-Bold-70" d="M 1656 506 
L 1656 -1331 
L 538 -1331 
L 538 3500 
L 1656 3500 
L 1656 2988 
Q 1888 3294 2169 3439 
Q 2450 3584 2816 3584 
Q 3463 3584 3878 3070 
Q 4294 2556 4294 1747 
Q 4294 938 3878 423 
Q 3463 -91 2816 -91 
Q 2450 -91 2169 54 
Q 1888 200 1656 506 
z
M 2400 2772 
Q 2041 2772 1848 2508 
Q 1656 2244 1656 1747 
Q 1656 1250 1848 986 
Q 2041 722 2400 722 
Q 2759 722 2948 984 
Q 3138 1247 3138 1747 
Q 3138 2247 2948 2509 
Q 2759 2772 2400 2772 
z
" transform="scale(0.015625)"/>
      <path id="DejaVuSans-Bold-65" d="M 4031 1759 
L 4031 1441 
L 1416 1441 
Q 1456 1047 1700 850 
Q 1944 653 2381 653 
Q 2734 653 3104 758 
Q 3475 863 3866 1075 
L 3866 213 
Q 3469 63 3072 -14 
Q 2675 -91 2278 -91 
Q 1328 -91 801 392 
Q 275 875 275 1747 
Q 275 2603 792 3093 
Q 1309 3584 2216 3584 
Q 3041 3584 3536 3087 
Q 4031 2591 4031 1759 
z
M 2881 2131 
Q 2881 2450 2695 2645 
Q 2509 2841 2209 2841 
Q 1884 2841 1681 2658 
Q 1478 2475 1428 2131 
L 2881 2131 
z
" transform="scale(0.015625)"/>
      <path id="DejaVuSans-Bold-20" transform="scale(0.015625)"/>
      <path id="DejaVuSans-Bold-4c" d="M 588 4666 
L 1791 4666 
L 1791 909 
L 3903 909 
L 3903 0 
L 588 0 
L 588 4666 
z
" transform="scale(0.015625)"/>
      <path id="DejaVuSans-Bold-61" d="M 2106 1575 
Q 1756 1575 1579 1456 
Q 1403 1338 1403 1106 
Q 1403 894 1545 773 
Q 1688 653 1941 653 
Q 2256 653 2472 879 
Q 2688 1106 2688 1447 
L 2688 1575 
L 2106 1575 
z
M 3816 1997 
L 3816 0 
L 2688 0 
L 2688 519 
Q 2463 200 2181 54 
Q 1900 -91 1497 -91 
Q 953 -91 614 226 
Q 275 544 275 1050 
Q 275 1666 698 1953 
Q 1122 2241 2028 2241 
L 2688 2241 
L 2688 2328 
Q 2688 2594 2478 2717 
Q 2269 2841 1825 2841 
Q 1466 2841 1156 2769 
Q 847 2697 581 2553 
L 581 3406 
Q 941 3494 1303 3539 
Q 1666 3584 2028 3584 
Q 2975 3584 3395 3211 
Q 3816 2838 3816 1997 
z
" transform="scale(0.015625)"/>
      <path id="DejaVuSans-Bold-72" d="M 3138 2547 
Q 2991 2616 2845 2648 
Q 2700 2681 2553 2681 
Q 2122 2681 1889 2404 
Q 1656 2128 1656 1613 
L 1656 0 
L 538 0 
L 538 3500 
L 1656 3500 
L 1656 2925 
Q 1872 3269 2151 3426 
Q 2431 3584 2822 3584 
Q 2878 3584 2943 3579 
Q 3009 3575 3134 3559 
L 3138 2547 
z
" transform="scale(0.015625)"/>
     </defs>
     <use xlink:href="#DejaVuSans-Bold-43"/>
     <use xlink:href="#DejaVuSans-Bold-6f" transform="translate(73.388672 0)"/>
     <use xlink:href="#DejaVuSans-Bold-6d" transform="translate(142.089844 0)"/>
     <use xlink:href="#DejaVuSans-Bold-70" transform="translate(246.289062 0)"/>
     <use xlink:href="#DejaVuSans-Bold-69" transform="translate(317.871094 0)"/>
     <use xlink:href="#DejaVuSans-Bold-6c" transform="translate(352.148438 0)"/>
     <use xlink:href="#DejaVuSans-Bold-65" transform="translate(386.425781 0)"/>
     <use xlink:href="#DejaVuSans-Bold-20" transform="translate(454.248047 0)"/>
     <use xlink:href="#DejaVuSans-Bold-4c" transform="translate(489.0625 0)"/>
     <use xlink:href="#DejaVuSans-Bold-61" transform="translate(552.783203 0)"/>
     <use xlink:href="#DejaVuSans-Bold-79" transform="translate(617.138672 0)"/>
     <use xlink:href="#DejaVuSans-Bold-65" transform="translate(682.324219 0)"/>
     <use xlink:href="#DejaVuSans-Bold-72" transform="translate(750.146484 0)"/>
    </g>
   </g>
   <g id="text_3">
    <!-- Module → MachineCode -->
    <g style="fill: #757575" transform="translate(258.3 65.912375) scale(0.08 -0.08)">
     <defs>
      <path id="DejaVuSans-4d" d="M 628 4666 
L 1569 4666 
L 2759 1491 
L 3956 4666 
L 4897 4666 
L 4897 0 
L 4281 0 
L 4281 4097 
L 3078 897 
L 2444 897 
L 1241 4097 
L 1241 0 
L 628 0 
L 628 4666 
z
" transform="scale(0.015625)"/>
      <path id="DejaVuSans-6f" d="M 1959 3097 
Q 1497 3097 1228 2736 
Q 959 2375 959 1747 
Q 959 1119 1226 758 
Q 1494 397 1959 397 
Q 2419 397 2687 759 
Q 2956 1122 2956 1747 
Q 2956 2369 2687 2733 
Q 2419 3097 1959 3097 
z
M 1959 3584 
Q 2709 3584 3137 3096 
Q 3566 2609 3566 1747 
Q 3566 888 3137 398 
Q 2709 -91 1959 -91 
Q 1206 -91 779 398 
Q 353 888 353 1747 
Q 353 2609 779 3096 
Q 1206 3584 1959 3584 
z
" transform="scale(0.015625)"/>
      <path id="DejaVuSans-64" d="M 2906 2969 
L 2906 4863 
L 3481 4863 
L 3481 0 
L 2906 0 
L 2906 525 
Q 2725 213 2448 61 
Q 2172 -91 1784 -91 
Q 1150 -91 751 415 
Q 353 922 353 1747 
Q 353 2572 751 3078 
Q 1150 3584 1784 3584 
Q 2172 3584 2448 3432 
Q 2725 3281 2906 2969 
z
M 947 1747 
Q 947 1113 1208 752 
Q 1469 391 1925 391 
Q 2381 391 2643 752 
Q 2906 1113 2906 1747 
Q 2906 2381 2643 2742 
Q 2381 3103 1925 3103 
Q 1469 3103 1208 2742 
Q 947 2381 947 1747 
z
" transform="scale(0.015625)"/>
      <path id="DejaVuSans-75" d="M 544 1381 
L 544 3500 
L 1119 3500 
L 1119 1403 
Q 1119 906 1312 657 
Q 1506 409 1894 409 
Q 2359 409 2629 706 
Q 2900 1003 2900 1516 
L 2900 3500 
L 3475 3500 
L 3475 0 
L 2900 0 
L 2900 538 
Q 2691 219 2414 64 
Q 2138 -91 1772 -91 
Q 1169 -91 856 284 
Q 544 659 544 1381 
z
M 1991 3584 
L 1991 3584 
z
" transform="scale(0.015625)"/>
      <path id="DejaVuSans-6c" d="M 603 4863 
L 1178 4863 
L 1178 0 
L 603 0 
L 603 4863 
z
" transform="scale(0.015625)"/>
      <path id="DejaVuSans-65" d="M 3597 1894 
L 3597 1613 
L 953 1613 
Q 991 1019 1311 708 
Q 1631 397 2203 397 
Q 2534 397 2845 478 
Q 3156 559 3463 722 
L 3463 178 
Q 3153 47 2828 -22 
Q 2503 -91 2169 -91 
Q 1331 -91 842 396 
Q 353 884 353 1716 
Q 353 2575 817 3079 
Q 1281 3584 2069 3584 
Q 2775 3584 3186 3129 
Q 3597 2675 3597 1894 
z
M 3022 2063 
Q 3016 2534 2758 2815 
Q 2500 3097 2075 3097 
Q 1594 3097 1305 2825 
Q 1016 2553 972 2059 
L 3022 2063 
z
" transform="scale(0.015625)"/>
      <path id="DejaVuSans-20" transform="scale(0.015625)"/>
      <path id="DejaVuSans-2192" d="M 5050 2147 
L 5050 1866 
L 3822 638 
L 3447 1013 
L 4175 1741 
L 366 1741 
L 366 2272 
L 4175 2272 
L 3447 3000 
L 3822 3375 
L 5050 2147 
z
" transform="scale(0.015625)"/>
      <path id="DejaVuSans-61" d="M 2194 1759 
Q 1497 1759 1228 1600 
Q 959 1441 959 1056 
Q 959 750 1161 570 
Q 1363 391 1709 391 
Q 2188 391 2477 730 
Q 2766 1069 2766 1631 
L 2766 1759 
L 2194 1759 
z
M 3341 1997 
L 3341 0 
L 2766 0 
L 2766 531 
Q 2569 213 2275 61 
Q 1981 -91 1556 -91 
Q 1019 -91 701 211 
Q 384 513 384 1019 
Q 384 1609 779 1909 
Q 1175 2209 1959 2209 
L 2766 2209 
L 2766 2266 
Q 2766 2663 2505 2880 
Q 2244 3097 1772 3097 
Q 1472 3097 1187 3025 
Q 903 2953 641 2809 
L 641 3341 
Q 956 3463 1253 3523 
Q 1550 3584 1831 3584 
Q 2591 3584 2966 3190 
Q 3341 2797 3341 1997 
z
" transform="scale(0.015625)"/>
      <path id="DejaVuSans-63" d="M 3122 3366 
L 3122 2828 
Q 2878 2963 2633 3030 
Q 2388 3097 2138 3097 
Q 1578 3097 1268 2742 
Q 959 2388 959 1747 
Q 959 1106 1268 751 
Q 1578 397 2138 397 
Q 2388 397 2633 464 
Q 2878 531 3122 666 
L 3122 134 
Q 2881 22 2623 -34 
Q 2366 -91 2075 -91 
Q 1284 -91 818 406 
Q 353 903 353 1747 
Q 353 2603 823 3093 
Q 1294 3584 2113 3584 
Q 2378 3584 2631 3529 
Q 2884 3475 3122 3366 
z
" transform="scale(0.015625)"/>
      <path id="DejaVuSans-68" d="M 3513 2113 
L 3513 0 
L 2938 0 
L 2938 2094 
Q 2938 2591 2744 2837 
Q 2550 3084 2163 3084 
Q 1697 3084 1428 2787 
Q 1159 2491 1159 1978 
L 1159 0 
L 581 0 
L 581 4863 
L 1159 4863 
L 1159 2956 
Q 1366 3272 1645 3428 
Q 1925 3584 2291 3584 
Q 2894 3584 3203 3211 
Q 3513 2838 3513 2113 
z
" transform="scale(0.015625)"/>
      <path id="DejaVuSans-69" d="M 603 3500 
L 1178 3500 
L 1178 0 
L 603 0 
L 603 3500 
z
M 603 4863 
L 1178 4863 
L 1178 4134 
L 603 4134 
L 603 4863 
z
" transform="scale(0.015625)"/>
      <path id="DejaVuSans-6e" d="M 3513 2113 
L 3513 0 
L 2938 0 
L 2938 2094 
Q 2938 2591 2744 2837 
Q 2550 3084 2163 3084 
Q 1697 3084 1428 2787 
Q 1159 2491 1159 1978 
L 1159 0 
L 581 0 
L 581 3500 
L 1159 3500 
L 1159 2956 
Q 1366 3272 1645 3428 
Q 1925 3584 2291 3584 
Q 2894 3584 3203 3211 
Q 3513 2838 3513 2113 
z
" transform="scale(0.015625)"/>
      <path id="DejaVuSans-43" d="M 4122 4306 
L 4122 3641 
Q 3803 3938 3442 4084 
Q 3081 4231 2675 4231 
Q 1875 4231 1450 3742 
Q 1025 3253 1025 2328 
Q 1025 1406 1450 917 
Q 1875 428 2675 428 
Q 3081 428 3442 575 
Q 3803 722 4122 1019 
L 4122 359 
Q 3791 134 3420 21 
Q 3050 -91 2638 -91 
Q 1578 -91 968 557 
Q 359 1206 359 2328 
Q 359 3453 968 4101 
Q 1578 4750 2638 4750 
Q 3056 4750 3426 4639 
Q 3797 4528 4122 4306 
z
" transform="scale(0.015625)"/>
     </defs>
     <use xlink:href="#DejaVuSans-4d"/>
     <use xlink:href="#DejaVuSans-6f" transform="translate(86.279297 0)"/>
     <use xlink:href="#DejaVuSans-64" transform="translate(147.460938 0)"/>
     <use xlink:href="#DejaVuSans-75" transform="translate(210.9375 0)"/>
     <use xlink:href="#DejaVuSans-6c" transform="translate(274.316406 0)"/>
     <use xlink:href="#DejaVuSans-65" transform="translate(302.099609 0)"/>
     <use xlink:href="#DejaVuSans-20" transform="translate(363.623047 0)"/>
     <use xlink:href="#DejaVuSans-2192" transform="translate(395.410156 0)"/>
     <use xlink:href="#DejaVuSans-20" transform="translate(479.199219 0)"/>
     <use xlink:href="#DejaVuSans-4d" transform="translate(510.986328 0)"/>
     <use xlink:href="#DejaVuSans-61" transform="translate(597.265625 0)"/>
     <use xlink:href="#DejaVuSans-63" transform="translate(658.544922 0)"/>
     <use xlink:href="#DejaVuSans-68" transform="translate(713.525391 0)"/>
     <use xlink:href="#DejaVuSans-69" transform="translate(776.904297 0)"/>
     <use xlink:href="#DejaVuSans-6e" transform="translate(804.6875 0)"/>
     <use xlink:href="#DejaVuSans-65" transform="translate(868.066406 0)"/>
     <use xlink:href="#DejaVuSans-43" transform="translate(929.589844 0)"/>
     <use xlink:href="#DejaVuSans-6f" transform="translate(999.414062 0)"/>
     <use xlink:href="#DejaVuSans-64" transform="translate(1060.595703 0)"/>
     <use xlink:href="#DejaVuSans-65" transform="translate(1124.072266 0)"/>
    </g>
    <!-- (MachineCodeCompiler) -->
    <g style="fill: #757575" transform="translate(258.3 74.870625) scale(0.08 -0.08)">
     <defs>
      <path id="DejaVuSans-28" d="M 1984 4856 
Q 1566 4138 1362 3434 
Q 1159 2731 1159 2009 
Q 1159 1288 1364 580 
Q 1569 -128 1984 -844 
L 1484 -844 
Q 1016 -109 783 600 
Q 550 1309 550 2009 
Q 550 2706 781 3412 
Q 1013 4119 1484 4856 
L 1984 4856 
z
" transform="scale(0.015625)"/>
      <path id="DejaVuSans-6d" d="M 3328 2828 
Q 3544 3216 3844 3400 
Q 4144 3584 4550 3584 
Q 5097 3584 5394 3201 
Q 5691 2819 5691 2113 
L 5691 0 
L 5113 0 
L 5113 2094 
Q 5113 2597 4934 2840 
Q 4756 3084 4391 3084 
Q 3944 3084 3684 2787 
Q 3425 2491 3425 1978 
L 3425 0 
L 2847 0 
L 2847 2094 
Q 2847 2600 2669 2842 
Q 2491 3084 2119 3084 
Q 1678 3084 1418 2786 
Q 1159 2488 1159 1978 
L 1159 0 
L 581 0 
L 581 3500 
L 1159 3500 
L 1159 2956 
Q 1356 3278 1631 3431 
Q 1906 3584 2284 3584 
Q 2666 3584 2933 3390 
Q 3200 3197 3328 2828 
z
" transform="scale(0.015625)"/>
      <path id="DejaVuSans-70" d="M 1159 525 
L 1159 -1331 
L 581 -1331 
L 581 3500 
L 1159 3500 
L 1159 2969 
Q 1341 3281 1617 3432 
Q 1894 3584 2278 3584 
Q 2916 3584 3314 3078 
Q 3713 2572 3713 1747 
Q 3713 922 3314 415 
Q 2916 -91 2278 -91 
Q 1894 -91 1617 61 
Q 1341 213 1159 525 
z
M 3116 1747 
Q 3116 2381 2855 2742 
Q 2594 3103 2138 3103 
Q 1681 3103 1420 2742 
Q 1159 2381 1159 1747 
Q 1159 1113 1420 752 
Q 1681 391 2138 391 
Q 2594 391 2855 752 
Q 3116 1113 3116 1747 
z
" transform="scale(0.015625)"/>
      <path id="DejaVuSans-72" d="M 2631 2963 
Q 2534 3019 2420 3045 
Q 2306 3072 2169 3072 
Q 1681 3072 1420 2755 
Q 1159 2438 1159 1844 
L 1159 0 
L 581 0 
L 581 3500 
L 1159 3500 
L 1159 2956 
Q 1341 3275 1631 3429 
Q 1922 3584 2338 3584 
Q 2397 3584 2469 3576 
Q 2541 3569 2628 3553 
L 2631 2963 
z
" transform="scale(0.015625)"/>
      <path id="DejaVuSans-29" d="M 513 4856 
L 1013 4856 
Q 1481 4119 1714 3412 
Q 1947 2706 1947 2009 
Q 1947 1309 1714 600 
Q 1481 -109 1013 -844 
L 513 -844 
Q 928 -128 1133 580 
Q 1338 1288 1338 2009 
Q 1338 2731 1133 3434 
Q 928 4138 513 4856 
z
" transform="scale(0.015625)"/>
     </defs>
     <use xlink:href="#DejaVuSans-28"/>
     <use xlink:href="#DejaVuSans-4d" transform="translate(39.013672 0)"/>
     <use xlink:href="#DejaVuSans-61" transform="translate(125.292969 0)"/>
     <use xlink:href="#DejaVuSans-63" transform="translate(186.572266 0)"/>
     <use xlink:href="#DejaVuSans-68" transform="translate(241.552734 0)"/>
     <use xlink:href="#DejaVuSans-69" transform="translate(304.931641 0)"/>
     <use xlink:href="#DejaVuSans-6e" transform="translate(332.714844 0)"/>
     <use xlink:href="#DejaVuSans-65" transform="translate(396.09375 0)"/>
     <use xlink:href="#DejaVuSans-43" transform="translate(457.617188 0)"/>
     <use xlink:href="#DejaVuSans-6f" transform="translate(527.441406 0)"/>
     <use xlink:href="#DejaVuSans-64" transform="translate(588.623047 0)"/>
     <use xlink:href="#DejaVuSans-65" transform="translate(652.099609 0)"/>
     <use xlink:href="#DejaVuSans-43" transform="translate(713.623047 0)"/>
     <use xlink:href="#DejaVuSans-6f" transform="translate(783.447266 0)"/>
     <use xlink:href="#DejaVuSans-6d" transform="translate(844.628906 0)"/>
     <use xlink:href="#DejaVuSans-70" transform="translate(942.041016 0)"/>
     <use xlink:href="#DejaVuSans-69" transform="translate(1005.517578 0)"/>
     <use xlink:href="#DejaVuSans-6c" transform="translate(1033.300781 0)"/>
     <use xlink:href="#DejaVuSans-65" transform="translate(1061.083984 0)"/>
     <use xlink:href="#DejaVuSans-72" transform="translate(1122.607422 0)"/>
     <use xlink:href="#DejaVuSans-29" transform="translate(1163.720703 0)"/>
    </g>
   </g>
   <g id="text_4">
    <!-- Transform Layer -->
    <g style="fill: #4caf50" transform="translate(42.354 115.256312) scale(0.1 -0.1)">
     <defs>
      <path id="DejaVuSans-Bold-6e" d="M 4056 2131 
L 4056 0 
L 2931 0 
L 2931 347 
L 2931 1631 
Q 2931 2084 2911 2256 
Q 2891 2428 2841 2509 
Q 2775 2619 2662 2680 
Q 2550 2741 2406 2741 
Q 2056 2741 1856 2470 
Q 1656 2200 1656 1722 
L 1656 0 
L 538 0 
L 538 3500 
L 1656 3500 
L 1656 2988 
Q 1909 3294 2193 3439 
Q 2478 3584 2822 3584 
Q 3428 3584 3742 3212 
Q 4056 2841 4056 2131 
z
" transform="scale(0.015625)"/>
      <path id="DejaVuSans-Bold-73" d="M 3272 3391 
L 3272 2541 
Q 2913 2691 2578 2766 
Q 2244 2841 1947 2841 
Q 1628 2841 1473 2761 
Q 1319 2681 1319 2516 
Q 1319 2381 1436 2309 
Q 1553 2238 1856 2203 
L 2053 2175 
Q 2913 2066 3209 1816 
Q 3506 1566 3506 1031 
Q 3506 472 3093 190 
Q 2681 -91 1863 -91 
Q 1516 -91 1145 -36 
Q 775 19 384 128 
L 384 978 
Q 719 816 1070 734 
Q 1422 653 1784 653 
Q 2113 653 2278 743 
Q 2444 834 2444 1013 
Q 2444 1163 2330 1236 
Q 2216 1309 1875 1350 
L 1678 1375 
Q 931 1469 631 1722 
Q 331 1975 331 2491 
Q 331 3047 712 3315 
Q 1094 3584 1881 3584 
Q 2191 3584 2531 3537 
Q 2872 3491 3272 3391 
z
" transform="scale(0.015625)"/>
      <path id="DejaVuSans-Bold-66" d="M 2841 4863 
L 2841 4128 
L 2222 4128 
Q 1984 4128 1890 4042 
Q 1797 3956 1797 3744 
L 1797 3500 
L 2753 3500 
L 2753 2700 
L 1797 2700 
L 1797 0 
L 678 0 
L 678 2700 
L 122 2700 
L 122 3500 
L 678 3500 
L 678 3744 
Q 678 4316 997 4589 
Q 1316 4863 1984 4863 
L 2841 4863 
z
" transform="scale(0.015625)"/>
     </defs>
     <use xlink:href="#DejaVuSans-Bold-54"/>
     <use xlink:href="#DejaVuSans-Bold-72" transform="translate(57.212891 0)"/>
     <use xlink:href="#DejaVuSans-Bold-61" transform="translate(106.529297 0)"/>
     <use xlink:href="#DejaVuSans-Bold-6e" transform="translate(174.009766 0)"/>
     <use xlink:href="#DejaVuSans-Bold-73" transform="translate(245.201172 0)"/>
     <use xlink:href="#DejaVuSans-Bold-66" transform="translate(304.722656 0)"/>
     <use xlink:href="#DejaVuSans-Bold-6f" transform="translate(348.228516 0)"/>
     <use xlink:href="#DejaVuSans-Bold-72" transform="translate(416.929688 0)"/>
     <use xlink:href="#DejaVuSans-Bold-6d" transform="translate(466.246094 0)"/>
     <use xlink:href="#DejaVuSans-Bold-20" transform="translate(570.445312 0)"/>
     <use xlink:href="#DejaVuSans-Bold-4c" transform="translate(605.259766 0)"/>
     <use xlink:href="#DejaVuSans-Bold-61" transform="translate(668.980469 0)"/>
     <use xlink:href="#DejaVuSans-Bold-79" transform="translate(733.335938 0)"/>
     <use xlink:href="#DejaVuSans-Bold-65" transform="translate(798.521484 0)"/>
     <use xlink:href="#DejaVuSans-Bold-72" transform="translate(866.34375 0)"/>
    </g>
   </g>
   <g id="text_5">
    <!-- Optimize IR -->
    <g style="fill: #757575" transform="translate(258.3 110.264375) scale(0.08 -0.08)">
     <defs>
      <path id="DejaVuSans-4f" d="M 2522 4238 
Q 1834 4238 1429 3725 
Q 1025 3213 1025 2328 
Q 1025 1447 1429 934 
Q 1834 422 2522 422 
Q 3209 422 3611 934 
Q 4013 1447 4013 2328 
Q 4013 3213 3611 3725 
Q 3209 4238 2522 4238 
z
M 2522 4750 
Q 3503 4750 4090 4092 
Q 4678 3434 4678 2328 
Q 4678 1225 4090 567 
Q 3503 -91 2522 -91 
Q 1538 -91 948 565 
Q 359 1222 359 2328 
Q 359 3434 948 4092 
Q 1538 4750 2522 4750 
z
" transform="scale(0.015625)"/>
      <path id="DejaVuSans-74" d="M 1172 4494 
L 1172 3500 
L 2356 3500 
L 2356 3053 
L 1172 3053 
L 1172 1153 
Q 1172 725 1289 603 
Q 1406 481 1766 481 
L 2356 481 
L 2356 0 
L 1766 0 
Q 1100 0 847 248 
Q 594 497 594 1153 
L 594 3053 
L 172 3053 
L 172 3500 
L 594 3500 
L 594 4494 
L 1172 4494 
z
" transform="scale(0.015625)"/>
      <path id="DejaVuSans-7a" d="M 353 3500 
L 3084 3500 
L 3084 2975 
L 922 459 
L 3084 459 
L 3084 0 
L 275 0 
L 275 525 
L 2438 3041 
L 353 3041 
L 353 3500 
z
" transform="scale(0.015625)"/>
      <path id="DejaVuSans-49" d="M 628 4666 
L 1259 4666 
L 1259 0 
L 628 0 
L 628 4666 
z
" transform="scale(0.015625)"/>
      <path id="DejaVuSans-52" d="M 2841 2188 
Q 3044 2119 3236 1894 
Q 3428 1669 3622 1275 
L 4263 0 
L 3584 0 
L 2988 1197 
Q 2756 1666 2539 1819 
Q 2322 1972 1947 1972 
L 1259 1972 
L 1259 0 
L 628 0 
L 628 4666 
L 2053 4666 
Q 2853 4666 3247 4331 
Q 3641 3997 3641 3322 
Q 3641 2881 3436 2590 
Q 3231 2300 2841 2188 
z
M 1259 4147 
L 1259 2491 
L 2053 2491 
Q 2509 2491 2742 2702 
Q 2975 2913 2975 3322 
Q 2975 3731 2742 3939 
Q 2509 4147 2053 4147 
L 1259 4147 
z
" transform="scale(0.015625)"/>
     </defs>
     <use xlink:href="#DejaVuSans-4f"/>
     <use xlink:href="#DejaVuSans-70" transform="translate(78.710938 0)"/>
     <use xlink:href="#DejaVuSans-74" transform="translate(142.1875 0)"/>
     <use xlink:href="#DejaVuSans-69" transform="translate(181.396484 0)"/>
     <use xlink:href="#DejaVuSans-6d" transform="translate(209.179688 0)"/>
     <use xlink:href="#DejaVuSans-69" transform="translate(306.591797 0)"/>
     <use xlink:href="#DejaVuSans-7a" transform="translate(334.375 0)"/>
     <use xlink:href="#DejaVuSans-65" transform="translate(386.865234 0)"/>
     <use xlink:href="#DejaVuSans-20" transform="translate(448.388672 0)"/>
     <use xlink:href="#DejaVuSans-49" transform="translate(480.175781 0)"/>
     <use xlink:href="#DejaVuSans-52" transform="translate(509.667969 0)"/>
    </g>
    <!-- before compile -->
    <g style="fill: #757575" transform="translate(258.3 119.222625) scale(0.08 -0.08)">
     <defs>
      <path id="DejaVuSans-62" d="M 3116 1747 
Q 3116 2381 2855 2742 
Q 2594 3103 2138 3103 
Q 1681 3103 1420 2742 
Q 1159 2381 1159 1747 
Q 1159 1113 1420 752 
Q 1681 391 2138 391 
Q 2594 391 2855 752 
Q 3116 1113 3116 1747 
z
M 1159 2969 
Q 1341 3281 1617 3432 
Q 1894 3584 2278 3584 
Q 2916 3584 3314 3078 
Q 3713 2572 3713 1747 
Q 3713 922 3314 415 
Q 2916 -91 2278 -91 
Q 1894 -91 1617 61 
Q 1341 213 1159 525 
L 1159 0 
L 581 0 
L 581 4863 
L 1159 4863 
L 1159 2969 
z
" transform="scale(0.015625)"/>
      <path id="DejaVuSans-66" d="M 2375 4863 
L 2375 4384 
L 1825 4384 
Q 1516 4384 1395 4259 
Q 1275 4134 1275 3809 
L 1275 3500 
L 2222 3500 
L 2222 3053 
L 1275 3053 
L 1275 0 
L 697 0 
L 697 3053 
L 147 3053 
L 147 3500 
L 697 3500 
L 697 3744 
Q 697 4328 969 4595 
Q 1241 4863 1831 4863 
L 2375 4863 
z
" transform="scale(0.015625)"/>
     </defs>
     <use xlink:href="#DejaVuSans-62"/>
     <use xlink:href="#DejaVuSans-65" transform="translate(63.476562 0)"/>
     <use xlink:href="#DejaVuSans-66" transform="translate(125 0)"/>
     <use xlink:href="#DejaVuSans-6f" transform="translate(160.205078 0)"/>
     <use xlink:href="#DejaVuSans-72" transform="translate(221.386719 0)"/>
     <use xlink:href="#DejaVuSans-65" transform="translate(260.25 0)"/>
     <use xlink:href="#DejaVuSans-20" transform="translate(321.773438 0)"/>
     <use xlink:href="#DejaVuSans-63" transform="translate(353.560547 0)"/>
     <use xlink:href="#DejaVuSans-6f" transform="translate(408.541016 0)"/>
     <use xlink:href="#DejaVuSans-6d" transform="translate(469.722656 0)"/>
     <use xlink:href="#DejaVuSans-70" transform="translate(567.134766 0)"/>
     <use xlink:href="#DejaVuSans-69" transform="translate(630.611328 0)"/>
     <use xlink:href="#DejaVuSans-6c" transform="translate(658.394531 0)"/>
     <use xlink:href="#DejaVuSans-65" transform="translate(686.177734 0)"/>
    </g>
   </g>
   <g id="text_6">
    <!-- Layer API -->
    <g style="fill: #6c8eb2" transform="translate(42.354 159.56925) scale(0.1 -0.1)">
     <defs>
      <path id="DejaVuSans-Bold-41" d="M 3419 850 
L 1538 850 
L 1241 0 
L 31 0 
L 1759 4666 
L 3194 4666 
L 4922 0 
L 3713 0 
L 3419 850 
z
M 1838 1716 
L 3116 1716 
L 2478 3572 
L 1838 1716 
z
" transform="scale(0.015625)"/>
      <path id="DejaVuSans-Bold-50" d="M 588 4666 
L 2584 4666 
Q 3475 4666 3951 4270 
Q 4428 3875 4428 3144 
Q 4428 2409 3951 2014 
Q 3475 1619 2584 1619 
L 1791 1619 
L 1791 0 
L 588 0 
L 588 4666 
z
M 1791 3794 
L 1791 2491 
L 2456 2491 
Q 2806 2491 2997 2661 
Q 3188 2831 3188 3144 
Q 3188 3456 2997 3625 
Q 2806 3794 2456 3794 
L 1791 3794 
z
" transform="scale(0.015625)"/>
     </defs>
     <use xlink:href="#DejaVuSans-Bold-4c"/>
     <use xlink:href="#DejaVuSans-Bold-61" transform="translate(63.720703 0)"/>
     <use xlink:href="#DejaVuSans-Bold-79" transform="translate(128.076172 0)"/>
     <use xlink:href="#DejaVuSans-Bold-65" transform="translate(193.261719 0)"/>
     <use xlink:href="#DejaVuSans-Bold-72" transform="translate(261.083984 0)"/>
     <use xlink:href="#DejaVuSans-Bold-20" transform="translate(310.400391 0)"/>
     <use xlink:href="#DejaVuSans-Bold-41" transform="translate(345.214844 0)"/>
     <use xlink:href="#DejaVuSans-Bold-50" transform="translate(422.607422 0)"/>
     <use xlink:href="#DejaVuSans-Bold-49" transform="translate(495.898438 0)"/>
    </g>
   </g>
   <g id="text_7">
    <!-- add() → define() → -->
    <g style="fill: #757575" transform="translate(258.3 154.616375) scale(0.08 -0.08)">
     <use xlink:href="#DejaVuSans-61"/>
     <use xlink:href="#DejaVuSans-64" transform="translate(61.279297 0)"/>
     <use xlink:href="#DejaVuSans-64" transform="translate(124.755859 0)"/>
     <use xlink:href="#DejaVuSans-28" transform="translate(188.232422 0)"/>
     <use xlink:href="#DejaVuSans-29" transform="translate(227.246094 0)"/>
     <use xlink:href="#DejaVuSans-20" transform="translate(266.259766 0)"/>
     <use xlink:href="#DejaVuSans-2192" transform="translate(298.046875 0)"/>
     <use xlink:href="#DejaVuSans-20" transform="translate(381.835938 0)"/>
     <use xlink:href="#DejaVuSans-64" transform="translate(413.623047 0)"/>
     <use xlink:href="#DejaVuSans-65" transform="translate(477.099609 0)"/>
     <use xlink:href="#DejaVuSans-66" transform="translate(538.623047 0)"/>
     <use xlink:href="#DejaVuSans-69" transform="translate(573.828125 0)"/>
     <use xlink:href="#DejaVuSans-6e" transform="translate(601.611328 0)"/>
     <use xlink:href="#DejaVuSans-65" transform="translate(664.990234 0)"/>
     <use xlink:href="#DejaVuSans-28" transform="translate(726.513672 0)"/>
     <use xlink:href="#DejaVuSans-29" transform="translate(765.527344 0)"/>
     <use xlink:href="#DejaVuSans-20" transform="translate(804.541016 0)"/>
     <use xlink:href="#DejaVuSans-2192" transform="translate(836.328125 0)"/>
    </g>
    <!-- lookup() -->
    <g style="fill: #757575" transform="translate(258.3 163.574625) scale(0.08 -0.08)">
     <defs>
      <path id="DejaVuSans-6b" d="M 581 4863 
L 1159 4863 
L 1159 1991 
L 2875 3500 
L 3609 3500 
L 1753 1863 
L 3688 0 
L 2938 0 
L 1159 1709 
L 1159 0 
L 581 0 
L 581 4863 
z
" transform="scale(0.015625)"/>
     </defs>
     <use xlink:href="#DejaVuSans-6c"/>
     <use xlink:href="#DejaVuSans-6f" transform="translate(27.783203 0)"/>
     <use xlink:href="#DejaVuSans-6f" transform="translate(88.964844 0)"/>
     <use xlink:href="#DejaVuSans-6b" transform="translate(150.146484 0)"/>
     <use xlink:href="#DejaVuSans-75" transform="translate(204.931641 0)"/>
     <use xlink:href="#DejaVuSans-70" transform="translate(268.310547 0)"/>
     <use xlink:href="#DejaVuSans-28" transform="translate(331.787109 0)"/>
     <use xlink:href="#DejaVuSans-29" transform="translate(370.800781 0)"/>
    </g>
   </g>
   <g id="text_8">
    <!-- Symbol Lookup -->
    <g style="fill: #e2882c" transform="translate(340.791406 87.536313) scale(0.1 -0.1)">
     <defs>
      <path id="DejaVuSans-Bold-53" d="M 3834 4519 
L 3834 3531 
Q 3450 3703 3084 3790 
Q 2719 3878 2394 3878 
Q 1963 3878 1756 3759 
Q 1550 3641 1550 3391 
Q 1550 3203 1689 3098 
Q 1828 2994 2194 2919 
L 2706 2816 
Q 3484 2659 3812 2340 
Q 4141 2022 4141 1434 
Q 4141 663 3683 286 
Q 3225 -91 2284 -91 
Q 1841 -91 1394 -6 
Q 947 78 500 244 
L 500 1259 
Q 947 1022 1364 901 
Q 1781 781 2169 781 
Q 2563 781 2772 912 
Q 2981 1044 2981 1288 
Q 2981 1506 2839 1625 
Q 2697 1744 2272 1838 
L 1806 1941 
Q 1106 2091 782 2419 
Q 459 2747 459 3303 
Q 459 4000 909 4375 
Q 1359 4750 2203 4750 
Q 2588 4750 2994 4692 
Q 3400 4634 3834 4519 
z
" transform="scale(0.015625)"/>
      <path id="DejaVuSans-Bold-6b" d="M 538 4863 
L 1656 4863 
L 1656 2216 
L 2944 3500 
L 4244 3500 
L 2534 1894 
L 4378 0 
L 3022 0 
L 1656 1459 
L 1656 0 
L 538 0 
L 538 4863 
z
" transform="scale(0.015625)"/>
      <path id="DejaVuSans-Bold-75" d="M 500 1363 
L 500 3500 
L 1625 3500 
L 1625 3150 
Q 1625 2866 1622 2436 
Q 1619 2006 1619 1863 
Q 1619 1441 1641 1255 
Q 1663 1069 1716 984 
Q 1784 875 1895 815 
Q 2006 756 2150 756 
Q 2500 756 2700 1025 
Q 2900 1294 2900 1772 
L 2900 3500 
L 4019 3500 
L 4019 0 
L 2900 0 
L 2900 506 
Q 2647 200 2364 54 
Q 2081 -91 1741 -91 
Q 1134 -91 817 281 
Q 500 653 500 1363 
z
" transform="scale(0.015625)"/>
     </defs>
     <use xlink:href="#DejaVuSans-Bold-53"/>
     <use xlink:href="#DejaVuSans-Bold-79" transform="translate(72.021484 0)"/>
     <use xlink:href="#DejaVuSans-Bold-6d" transform="translate(137.207031 0)"/>
     <use xlink:href="#DejaVuSans-Bold-62" transform="translate(241.40625 0)"/>
     <use xlink:href="#DejaVuSans-Bold-6f" transform="translate(312.988281 0)"/>
     <use xlink:href="#DejaVuSans-Bold-6c" transform="translate(381.689453 0)"/>
     <use xlink:href="#DejaVuSans-Bold-20" transform="translate(415.966797 0)"/>
     <use xlink:href="#DejaVuSans-Bold-4c" transform="translate(450.78125 0)"/>
     <use xlink:href="#DejaVuSans-Bold-6f" transform="translate(514.501953 0)"/>
     <use xlink:href="#DejaVuSans-Bold-6f" transform="translate(583.203125 0)"/>
     <use xlink:href="#DejaVuSans-Bold-6b" transform="translate(651.904297 0)"/>
     <use xlink:href="#DejaVuSans-Bold-75" transform="translate(718.408203 0)"/>
     <use xlink:href="#DejaVuSans-Bold-70" transform="translate(789.599609 0)"/>
    </g>
   </g>
   <g id="text_9">
    <!-- lookup("foo") -->
    <g style="fill: #757575" transform="translate(357.47375 114.7435) scale(0.08 -0.08)">
     <defs>
      <path id="DejaVuSans-22" d="M 1147 4666 
L 1147 2931 
L 616 2931 
L 616 4666 
L 1147 4666 
z
M 2328 4666 
L 2328 2931 
L 1797 2931 
L 1797 4666 
L 2328 4666 
z
" transform="scale(0.015625)"/>
     </defs>
     <use xlink:href="#DejaVuSans-6c"/>
     <use xlink:href="#DejaVuSans-6f" transform="translate(27.783203 0)"/>
     <use xlink:href="#DejaVuSans-6f" transform="translate(88.964844 0)"/>
     <use xlink:href="#DejaVuSans-6b" transform="translate(150.146484 0)"/>
     <use xlink:href="#DejaVuSans-75" transform="translate(204.931641 0)"/>
     <use xlink:href="#DejaVuSans-70" transform="translate(268.310547 0)"/>
     <use xlink:href="#DejaVuSans-28" transform="translate(331.787109 0)"/>
     <use xlink:href="#DejaVuSans-22" transform="translate(370.800781 0)"/>
     <use xlink:href="#DejaVuSans-66" transform="translate(416.796875 0)"/>
     <use xlink:href="#DejaVuSans-6f" transform="translate(452.001953 0)"/>
     <use xlink:href="#DejaVuSans-6f" transform="translate(513.183594 0)"/>
     <use xlink:href="#DejaVuSans-22" transform="translate(574.365234 0)"/>
     <use xlink:href="#DejaVuSans-29" transform="translate(620.361328 0)"/>
    </g>
   </g>
   <g id="text_10">
    <!-- → JITDylib.search() -->
    <g style="fill: #757575" transform="translate(346.536875 136.9195) scale(0.08 -0.08)">
     <defs>
      <path id="DejaVuSans-4a" d="M 628 4666 
L 1259 4666 
L 1259 325 
Q 1259 -519 939 -900 
Q 619 -1281 -91 -1281 
L -331 -1281 
L -331 -750 
L -134 -750 
Q 284 -750 456 -515 
Q 628 -281 628 325 
L 628 4666 
z
" transform="scale(0.015625)"/>
      <path id="DejaVuSans-54" d="M -19 4666 
L 3928 4666 
L 3928 4134 
L 2272 4134 
L 2272 0 
L 1638 0 
L 1638 4134 
L -19 4134 
L -19 4666 
z
" transform="scale(0.015625)"/>
      <path id="DejaVuSans-44" d="M 1259 4147 
L 1259 519 
L 2022 519 
Q 2988 519 3436 956 
Q 3884 1394 3884 2338 
Q 3884 3275 3436 3711 
Q 2988 4147 2022 4147 
L 1259 4147 
z
M 628 4666 
L 1925 4666 
Q 3281 4666 3915 4102 
Q 4550 3538 4550 2338 
Q 4550 1131 3912 565 
Q 3275 0 1925 0 
L 628 0 
L 628 4666 
z
" transform="scale(0.015625)"/>
      <path id="DejaVuSans-79" d="M 2059 -325 
Q 1816 -950 1584 -1140 
Q 1353 -1331 966 -1331 
L 506 -1331 
L 506 -850 
L 844 -850 
Q 1081 -850 1212 -737 
Q 1344 -625 1503 -206 
L 1606 56 
L 191 3500 
L 800 3500 
L 1894 763 
L 2988 3500 
L 3597 3500 
L 2059 -325 
z
" transform="scale(0.015625)"/>
      <path id="DejaVuSans-2e" d="M 684 794 
L 1344 794 
L 1344 0 
L 684 0 
L 684 794 
z
" transform="scale(0.015625)"/>
      <path id="DejaVuSans-73" d="M 2834 3397 
L 2834 2853 
Q 2591 2978 2328 3040 
Q 2066 3103 1784 3103 
Q 1356 3103 1142 2972 
Q 928 2841 928 2578 
Q 928 2378 1081 2264 
Q 1234 2150 1697 2047 
L 1894 2003 
Q 2506 1872 2764 1633 
Q 3022 1394 3022 966 
Q 3022 478 2636 193 
Q 2250 -91 1575 -91 
Q 1294 -91 989 -36 
Q 684 19 347 128 
L 347 722 
Q 666 556 975 473 
Q 1284 391 1588 391 
Q 1994 391 2212 530 
Q 2431 669 2431 922 
Q 2431 1156 2273 1281 
Q 2116 1406 1581 1522 
L 1381 1569 
Q 847 1681 609 1914 
Q 372 2147 372 2553 
Q 372 3047 722 3315 
Q 1072 3584 1716 3584 
Q 2034 3584 2315 3537 
Q 2597 3491 2834 3397 
z
" transform="scale(0.015625)"/>
     </defs>
     <use xlink:href="#DejaVuSans-2192"/>
     <use xlink:href="#DejaVuSans-20" transform="translate(83.789062 0)"/>
     <use xlink:href="#DejaVuSans-4a" transform="translate(115.576172 0)"/>
     <use xlink:href="#DejaVuSans-49" transform="translate(145.068359 0)"/>
     <use xlink:href="#DejaVuSans-54" transform="translate(174.560547 0)"/>
     <use xlink:href="#DejaVuSans-44" transform="translate(235.644531 0)"/>
     <use xlink:href="#DejaVuSans-79" transform="translate(312.646484 0)"/>
     <use xlink:href="#DejaVuSans-6c" transform="translate(371.826172 0)"/>
     <use xlink:href="#DejaVuSans-69" transform="translate(399.609375 0)"/>
     <use xlink:href="#DejaVuSans-62" transform="translate(427.392578 0)"/>
     <use xlink:href="#DejaVuSans-2e" transform="translate(490.869141 0)"/>
     <use xlink:href="#DejaVuSans-73" transform="translate(522.65625 0)"/>
     <use xlink:href="#DejaVuSans-65" transform="translate(574.755859 0)"/>
     <use xlink:href="#DejaVuSans-61" transform="translate(636.279297 0)"/>
     <use xlink:href="#DejaVuSans-72" transform="translate(697.558594 0)"/>
     <use xlink:href="#DejaVuSans-63" transform="translate(736.421875 0)"/>
     <use xlink:href="#DejaVuSans-68" transform="translate(791.402344 0)"/>
     <use xlink:href="#DejaVuSans-28" transform="translate(854.78125 0)"/>
     <use xlink:href="#DejaVuSans-29" transform="translate(893.794922 0)"/>
    </g>
   </g>
   <g id="text_11">
    <!-- → Layer.emit() -->
    <g style="fill: #757575" transform="translate(355.009375 153.5515) scale(0.08 -0.08)">
     <defs>
      <path id="DejaVuSans-4c" d="M 628 4666 
L 1259 4666 
L 1259 531 
L 3531 531 
L 3531 0 
L 628 0 
L 628 4666 
z
" transform="scale(0.015625)"/>
     </defs>
     <use xlink:href="#DejaVuSans-2192"/>
     <use xlink:href="#DejaVuSans-20" transform="translate(83.789062 0)"/>
     <use xlink:href="#DejaVuSans-4c" transform="translate(115.576172 0)"/>
     <use xlink:href="#DejaVuSans-61" transform="translate(171.289062 0)"/>
     <use xlink:href="#DejaVuSans-79" transform="translate(232.568359 0)"/>
     <use xlink:href="#DejaVuSans-65" transform="translate(291.748047 0)"/>
     <use xlink:href="#DejaVuSans-72" transform="translate(353.271484 0)"/>
     <use xlink:href="#DejaVuSans-2e" transform="translate(385.259766 0)"/>
     <use xlink:href="#DejaVuSans-65" transform="translate(417.046875 0)"/>
     <use xlink:href="#DejaVuSans-6d" transform="translate(478.570312 0)"/>
     <use xlink:href="#DejaVuSans-69" transform="translate(575.982422 0)"/>
     <use xlink:href="#DejaVuSans-74" transform="translate(603.765625 0)"/>
     <use xlink:href="#DejaVuSans-28" transform="translate(642.974609 0)"/>
     <use xlink:href="#DejaVuSans-29" transform="translate(681.988281 0)"/>
    </g>
   </g>
   <g id="patch_7">
    <path d="M 238.212 116.07815 
Q 238.212 101.448823 238.212 87.937529 
" style="fill: none; stroke: #757575; stroke-linecap: round"/>
    <path d="M 236.012 92.337529 
L 238.212 87.937529 
L 240.412 92.337529 
" style="fill: none; stroke: #757575; stroke-linecap: round"/>
   </g>
   <g id="patch_8">
    <path d="M 238.212 160.43015 
Q 238.212 145.800823 238.212 132.289529 
" style="fill: none; stroke: #757575; stroke-linecap: round"/>
    <path d="M 236.012 136.689529 
L 238.212 132.289529 
L 240.412 136.689529 
" style="fill: none; stroke: #757575; stroke-linecap: round"/>
   </g>
  </g>
 </g>
 <defs>
  <clipPath id="pe6ab8b07af">
   <rect x="7.2" y="7.2" width="502.2" height="221.76"/>
  </clipPath>
 </defs>
</svg>
